# xmcd
#
# Track frame offsets: 
#        150
#        61292
#        108995
#        149517
#        200942
#        245312
#
# Disc length: 4288 seconds
#
# Revision: 5
# Processed by: cddbd v1.5.2PL0 Copyright (c) Steve Scherf et al.
# Submitted via: ExactAudioCopyFreeDBPlugin 1.0
#
DISCID=5910be06
DTITLE=Art Blakey and The Jazz Messengers - Blue mooon
DYEAR=1987
DGENRE=Jazz
TTITLE0=Falling in love with love
TTITLE1=Kelo
TTITLE2=In a sentimental mood
TTITLE3=May reh
TTITLE4=Blue moon
TTITLE5=Piano improvisation - Love for sale
EXTD=
EXTT0=
EXTT1=
EXTT2=
EXTT3=
EXTT4=
EXTT5=
PLAYORDER=
